<svg width="22" height="22" viewBox="0 0 22 22" fill="none" xmlns="http://www.w3.org/2000/svg">
<path fill-rule="evenodd" clip-rule="evenodd" d="M1.83317 10.9998C1.83317 5.93723 5.93723 1.83317 10.9998 1.83317C16.0624 1.83317 20.1665 5.93723 20.1665 10.9998C20.1665 16.0624 16.0624 20.1665 10.9998 20.1665C5.93723 20.1665 1.83317 16.0624 1.83317 10.9998ZM10.9998 0.166504C5.01675 0.166504 0.166504 5.01675 0.166504 10.9998C0.166504 16.9829 5.01675 21.8332 10.9998 21.8332C16.9829 21.8332 21.8332 16.9829 21.8332 10.9998C21.8332 5.01675 16.9829 0.166504 10.9998 0.166504ZM10.93 14.6942L16.7195 8.69421L15.2802 7.30547L10.1146 12.6589L6.61353 9.93756L5.38615 11.5167L9.59667 14.7894L10.3061 15.3408L10.93 14.6942Z" fill="#2B9B5B"/>
</svg>
