<svg width="17" height="21" viewBox="0 0 17 21" fill="none" xmlns="http://www.w3.org/2000/svg">
<g clip-path="url(#clip0_1_507)">
<path d="M8.38663 1.16699C6.46293 1.16699 4.61802 1.95365 3.25776 3.35393C1.89748 4.7542 1.1333 6.65337 1.1333 8.63366C1.1333 10.3995 1.49778 11.555 2.4933 12.8337L8.38663 19.8337L14.28 12.8337C15.2755 11.555 15.64 10.3995 15.64 8.63366C15.64 6.65337 14.8758 4.7542 13.5155 3.35393C12.1553 1.95365 10.3103 1.16699 8.38663 1.16699Z" fill="#15A078" fill-opacity="0.01"/>
<path d="M8.3865 11.433C9.88871 11.433 11.1065 10.1794 11.1065 8.63301C11.1065 7.08661 9.88871 5.83301 8.3865 5.83301C6.88429 5.83301 5.6665 7.08661 5.6665 8.63301C5.6665 10.1794 6.88429 11.433 8.3865 11.433Z" fill="#15A078" fill-opacity="0.01"/>
<path d="M8.38663 1.16699C6.46293 1.16699 4.61802 1.95365 3.25776 3.35393C1.89748 4.7542 1.1333 6.65337 1.1333 8.63366C1.1333 10.3995 1.49778 11.555 2.4933 12.8337L8.38663 19.8337L14.28 12.8337C15.2755 11.555 15.64 10.3995 15.64 8.63366C15.64 6.65337 14.8758 4.7542 13.5155 3.35393C12.1553 1.95365 10.3103 1.16699 8.38663 1.16699Z" stroke="white" stroke-opacity="0.4" stroke-width="1.49333" stroke-linecap="round" stroke-linejoin="round"/>
<path d="M8.3865 11.433C9.88871 11.433 11.1065 10.1794 11.1065 8.63301C11.1065 7.08661 9.88871 5.83301 8.3865 5.83301C6.88429 5.83301 5.6665 7.08661 5.6665 8.63301C5.6665 10.1794 6.88429 11.433 8.3865 11.433Z" stroke="white" stroke-opacity="0.4" stroke-width="1.49333" stroke-linecap="round" stroke-linejoin="round"/>
</g>
<defs>
<clipPath id="clip0_1_507">
<rect width="17" height="21" fill="white"/>
</clipPath>
</defs>
</svg>
