<svg width="17" height="18" viewBox="0 0 17 18" fill="none" xmlns="http://www.w3.org/2000/svg">
<path fill-rule="evenodd" clip-rule="evenodd" d="M15.0705 0.519235C15.2771 0.417463 15.5032 0.382367 15.7252 0.417583C15.9473 0.452815 16.1573 0.557071 16.3333 0.719503C16.5093 0.881947 16.6448 1.09663 16.7259 1.34121C16.8069 1.5858 16.8305 1.85134 16.7941 2.1102L14.8983 15.5707C14.7145 16.8691 13.4974 17.6137 12.4802 16.9671C11.6293 16.426 10.3654 15.5923 9.22864 14.7225C8.66024 14.287 6.91913 12.8927 7.13311 11.9005C7.317 11.0523 10.2426 7.86447 11.9143 5.96922C12.5704 5.22462 12.2713 4.79508 11.4964 5.47999C9.57219 7.18053 6.4828 9.76659 5.46137 10.4946C4.5603 11.1364 4.09054 11.2461 3.52883 11.1364C2.50405 10.9368 1.55367 10.6276 0.777974 10.2509C-0.270204 9.74212 -0.219216 8.05527 0.777146 7.56409L15.0705 0.519235Z" fill="white"/>
</svg>
