<svg width="22" height="22" viewBox="0 0 22 22" fill="none" xmlns="http://www.w3.org/2000/svg">
<path d="M11.02 0.504089C16.8192 0.504089 21.52 5.20494 21.52 11.0041C21.52 16.8032 16.8192 21.5041 11.02 21.5041C9.16441 21.5072 7.34144 21.0161 5.73854 20.0813L0.524236 21.5041L1.94384 16.2877C1.00824 14.6842 0.516785 12.8605 0.520036 11.0041C0.520036 5.20494 5.22088 0.504089 11.02 0.504089ZM7.44164 6.06909L7.23164 6.07749C7.09586 6.08683 6.96319 6.1225 6.84103 6.18249C6.72718 6.24706 6.62322 6.3277 6.53234 6.42189C6.40634 6.54054 6.33494 6.64344 6.25829 6.74319C5.86991 7.24813 5.66081 7.86807 5.66399 8.50509C5.66609 9.01959 5.80049 9.52044 6.01049 9.98874C6.43994 10.9358 7.14659 11.9386 8.07899 12.8678C8.30369 13.0915 8.52419 13.3162 8.76149 13.5251C9.92008 14.5451 11.3007 15.2807 12.7935 15.6734L13.3899 15.7648C13.5841 15.7753 13.7784 15.7606 13.9737 15.7511C14.2794 15.7349 14.5779 15.6523 14.8483 15.5086C14.9857 15.4375 15.12 15.3605 15.2505 15.2776C15.2505 15.2776 15.2949 15.2474 15.3817 15.1831C15.5235 15.0781 15.6106 15.0035 15.7282 14.8807C15.8164 14.7896 15.8899 14.684 15.9487 14.5636C16.0306 14.3924 16.1125 14.0659 16.1461 13.7939C16.1713 13.586 16.164 13.4726 16.1608 13.4023C16.1566 13.2899 16.0632 13.1734 15.9613 13.124L15.3502 12.85C15.3502 12.85 14.4367 12.452 13.8781 12.1979C13.8197 12.1725 13.757 12.1579 13.6933 12.1549C13.6215 12.1474 13.5489 12.1554 13.4804 12.1784C13.4119 12.2014 13.3492 12.2389 13.2964 12.2882C13.2912 12.2861 13.2208 12.346 12.4617 13.2658C12.4181 13.3243 12.3581 13.3686 12.2893 13.3929C12.2205 13.4172 12.146 13.4205 12.0753 13.4023C12.0068 13.384 11.9398 13.3609 11.8747 13.333C11.7445 13.2784 11.6994 13.2574 11.6101 13.2196C11.0073 12.957 10.4493 12.6016 9.95638 12.1664C9.82409 12.0509 9.70123 11.9249 9.57524 11.8031C9.16216 11.4075 8.80217 10.96 8.50424 10.4717L8.44229 10.372C8.39846 10.3046 8.36252 10.2323 8.33519 10.1567C8.29529 10.0024 8.39924 9.87849 8.39924 9.87849C8.39924 9.87849 8.65438 9.59919 8.77304 9.44799C8.88854 9.30099 8.98619 9.15819 9.04918 9.05634C9.17309 8.85684 9.21194 8.65209 9.14684 8.49354C8.85284 7.77534 8.54903 7.06098 8.23544 6.35049C8.17349 6.20979 7.98974 6.10899 7.82278 6.08904C7.76608 6.08203 7.70938 6.07644 7.65269 6.07224C7.5117 6.06415 7.37033 6.06555 7.22954 6.07644L7.44164 6.06909Z" fill="#15A078"/>
</svg>
