<svg width="22" height="22" viewBox="0 0 22 22" fill="none" xmlns="http://www.w3.org/2000/svg">
<path d="M11.0205 0.503906C16.8197 0.503906 21.5205 5.20476 21.5205 11.0039C21.5205 16.8031 16.8197 21.5039 11.0205 21.5039C9.1649 21.5071 7.34192 21.016 5.73902 20.0812L0.524724 21.5039L1.94432 16.2875C1.00873 14.684 0.517273 12.8603 0.520524 11.0039C0.520524 5.20476 5.22137 0.503906 11.0205 0.503906ZM7.44212 6.06891L7.23212 6.07731C7.09634 6.08665 6.96368 6.12232 6.84152 6.18231C6.72767 6.24688 6.62371 6.32752 6.53282 6.42171C6.40682 6.54036 6.33542 6.64326 6.25877 6.74301C5.87039 7.24795 5.66129 7.86789 5.66447 8.50491C5.66657 9.01941 5.80097 9.52026 6.01097 9.98856C6.44042 10.9357 7.14707 11.9384 8.07947 12.8676C8.30417 13.0913 8.52467 13.316 8.76197 13.5249C9.92057 14.545 11.3012 15.2806 12.794 15.6733L13.3904 15.7646C13.5846 15.7751 13.7789 15.7604 13.9742 15.751C14.2799 15.7348 14.5784 15.6521 14.8488 15.5084C14.9862 15.4373 15.1205 15.3604 15.251 15.2774C15.251 15.2774 15.2954 15.2473 15.3822 15.1829C15.524 15.0779 15.6111 15.0034 15.7287 14.8805C15.8169 14.7895 15.8904 14.6839 15.9492 14.5634C16.0311 14.3923 16.113 14.0657 16.1466 13.7937C16.1718 13.5858 16.1645 13.4724 16.1613 13.4021C16.1571 13.2897 16.0637 13.1732 15.9618 13.1238L15.3507 12.8498C15.3507 12.8498 14.4372 12.4518 13.8786 12.1977C13.8201 12.1723 13.7575 12.1577 13.6938 12.1547C13.622 12.1472 13.5493 12.1552 13.4809 12.1782C13.4124 12.2012 13.3496 12.2387 13.2969 12.288C13.2917 12.2859 13.2213 12.3458 12.4622 13.2656C12.4186 13.3242 12.3586 13.3684 12.2898 13.3927C12.2209 13.417 12.1465 13.4203 12.0758 13.4021C12.0073 13.3839 11.9403 13.3607 11.8752 13.3328C11.745 13.2782 11.6999 13.2572 11.6106 13.2194C11.0078 12.9568 10.4498 12.6015 9.95687 12.1662C9.82457 12.0507 9.70172 11.9247 9.57572 11.8029C9.16265 11.4073 8.80265 10.9598 8.50472 10.4716L8.44277 10.3718C8.39894 10.3044 8.363 10.2322 8.33567 10.1566C8.29577 10.0022 8.39972 9.87831 8.39972 9.87831C8.39972 9.87831 8.65487 9.59901 8.77352 9.44781C8.88902 9.30081 8.98667 9.15801 9.04967 9.05616C9.17357 8.85666 9.21242 8.65191 9.14732 8.49336C8.85332 7.77516 8.54951 7.0608 8.23592 6.35031C8.17397 6.20961 7.99022 6.10881 7.82327 6.08886C7.76657 6.08185 7.70987 6.07626 7.65317 6.07206C7.51219 6.06397 7.37081 6.06537 7.23002 6.07626L7.44212 6.06891Z" fill="white"/>
</svg>
