<svg width="181" height="332" viewBox="0 0 181 332" fill="none" xmlns="http://www.w3.org/2000/svg">
<path d="M18.6721 1.98983C8.71907 6.76682 2.67165 16.5722 0.52985 31.5317C-3.87973 62.9593 19.68 106.455 54.5787 131.094C64.4058 138.008 64.1538 137.631 60.8781 141.151C56.8465 145.425 58.4843 150.202 65.2877 153.848C69.8233 156.11 70.4532 156.99 71.4611 163.025C72.973 172.076 70.8312 182.887 65.4137 193.949C61.0041 202.623 59.3662 204.76 40.468 227.137C29.0031 240.588 26.1054 245.867 24.5936 255.547C22.0738 270.884 28.1212 282.198 44.3737 292.632C47.9013 294.769 59.9962 300.803 71.4611 305.831C98.5485 317.899 101.824 319.659 109.383 325.316C117.321 331.099 121.982 339.647 123.872 351.087C125.888 363.155 124.628 373.589 119.211 391.063C115.557 402.879 114.927 406.148 116.187 407.405C118.329 409.416 120.218 406.776 125.132 394.96C131.557 379.623 132.943 371.703 132.439 356.241C132.061 344.424 131.431 341.156 128.66 335.247C121.73 320.288 113.919 314.505 81.2882 299.923C53.0668 287.352 44.8776 282.826 38.4522 275.912C32.0269 268.872 30.641 262.21 33.6647 251.902C35.8065 244.862 41.476 236.942 58.2324 217.834C72.343 201.743 79.3983 184.395 78.1385 168.807C77.6345 164.03 77.0046 158.75 76.6266 157.368C75.9967 155.23 76.5006 154.476 79.0204 153.848C84.0599 152.591 87.3356 148.694 87.3356 143.791C87.3356 139.642 87.3356 139.517 99.0525 135.494C141.636 120.66 176.157 90.4898 180.441 64.3421C184.094 41.5885 169.606 26.7547 144.03 27.0062C130.172 27.1319 117.447 31.6574 100.816 42.3428C93.257 47.1198 86.4537 50.8911 85.6977 50.5139C84.8158 50.2625 81.1622 44.857 77.3825 38.4458C60.3742 9.90959 35.0506 -5.8042 18.6721 1.98983ZM40.2161 12.9266C50.5471 18.0807 57.8544 25.6233 68.0594 41.0857C73.3509 49.1311 78.7684 56.6737 80.2803 57.8051C84.8158 61.5764 90.1073 60.5708 98.8005 54.5367C108.754 47.874 122.738 40.7086 129.92 38.6972C138.109 36.5601 151.337 36.8115 157.511 39.3257C173.889 45.8627 175.149 62.3307 161.039 82.0672C148.566 99.5409 119.337 120.157 92.7531 130.34C87.0836 132.477 81.0362 134.237 79.3983 134.237C75.2407 134.237 55.5866 120.534 45.3816 110.603C30.263 95.7696 18.6721 77.5416 12.2467 58.8108C8.97105 49.3826 8.97105 31.5317 12.1207 23.3606C17.1603 10.4124 27.4913 6.51541 40.2161 12.9266Z" fill="#26DAA6"/>
</svg>
