<svg width="106" height="124" viewBox="0 0 106 124" fill="none" xmlns="http://www.w3.org/2000/svg">
<path d="M1.34002 23.8657C10.0484 22.6304 34.8373 18.7926 40.1407 32.6211C42.3474 38.3751 42.439 47.4329 39.3289 52.653C32.6498 63.8631 13.4734 58.3137 23.1118 44.1528C28.5172 36.2112 40.376 37.2126 48.7714 38.0467C61.1468 39.2763 69.4325 47.0066 77.6565 56.7332C81.833 61.6729 96.5657 88.8784 94.7379 88.5422" stroke="white" stroke-width="2" stroke-linecap="round"/>
<path d="M101.326 97.8502C99.453 97.4338 85.1782 93.75 86.8794 94.4436C89.106 95.3513 91.4759 96.0437 93.6009 97.2391C96.1149 98.6533 98.8813 99.3795 101.249 101.075C103.327 102.562 101.756 88.7694 100.98 86.4514" stroke="white" stroke-width="2" stroke-linecap="round"/>
</svg>
