<svg width="123" height="132" viewBox="0 0 123 132" fill="none" xmlns="http://www.w3.org/2000/svg">
<path d="M1.39519 33.2736C11.9456 8.48212 29.4315 -8.40501 56.6311 7.66912C77.5839 20.0516 84.2245 54.5203 63.0055 70.6472C57.9215 74.5112 49.5293 71.5805 45.3173 67.6166C38.6542 61.346 38.7301 53.3219 43.1073 45.5206C51.0587 31.349 71.6651 20.4124 86.9186 29.3951C110.789 43.4522 116.901 73.0215 113.078 98.9614C112.317 104.128 100.276 141.349 100.107 119.403C100.076 115.42 100.45 103.495 100.729 107.467C101.193 114.054 101.181 117.775 99.5086 124.339C99.1767 125.642 96.4957 132.211 99.9707 130.577C107.086 127.231 114.422 124.452 121.472 120.936" stroke="#15A078" stroke-width="2" stroke-linecap="round"/>
</svg>
