<svg width="123" height="132" viewBox="0 0 123 132" fill="none" xmlns="http://www.w3.org/2000/svg">
<path d="M121.734 33.2736C111.183 8.48212 93.6974 -8.40501 66.4978 7.66912C45.545 20.0516 38.9044 54.5203 60.1234 70.6472C65.2074 74.5112 73.5996 71.5805 77.8116 67.6166C84.4747 61.346 84.3988 53.3219 80.0216 45.5206C72.0702 31.349 51.4638 20.4124 36.2103 29.3951C12.3398 43.4522 6.22819 73.0215 10.0506 98.9614C10.812 104.128 22.853 141.349 23.0223 119.403C23.053 115.42 22.6792 103.495 22.3996 107.467C21.9359 114.054 21.9483 117.775 23.6203 124.339C23.9522 125.642 26.6332 132.211 23.1582 130.577C16.043 127.231 8.70683 124.452 1.65647 120.936" stroke="#15A078" stroke-width="2" stroke-linecap="round"/>
</svg>
