<svg width="1285" height="9117" viewBox="0 0 1285 9117" fill="none" xmlns="http://www.w3.org/2000/svg">
<path d="M584.5 2C659 21.5 658.502 82.1469 700.831 157.009M700.831 157.009C773.772 286.009 565.525 505.848 499.772 474.5C427.754 440.166 536.068 213.501 700.831 157.009ZM700.831 157.009C732.819 146.041 766.935 141.487 802.272 146C986.272 169.5 1073.11 333.494 1026.77 492.5C950.272 755 297.772 625.5 689.772 1049.5L696.076 1512.5C1045.89 1656.74 825.236 1549.55 606.306 1613.01M606.306 1613.01C593.922 1616.6 581.542 1620.74 569.272 1625.5C437.772 1676.5 524.436 1828.53 812.772 1783C964.772 1759 1085.41 1660.23 894.272 1625.5C824.514 1612.82 714.909 1603.93 606.306 1613.01ZM606.306 1613.01C438.566 1627.04 273.216 1683.95 260.772 1836C245.753 1849.46 350 2344 879.5 2320.5C1409 2297 1228.66 3072.67 1050 3063.5C713.26 3046.22 1270.24 3525.89 672.871 3449.2C75.4999 3372.5 295.741 3834.89 295.741 3834.89C245.741 3916 5.33052 3969.38 14.2718 4103.5C26.7719 4291 1190.27 3632.62 1190.27 4461C1190.27 4513.44 1179.56 4560.91 1160.17 4603.51M1160.17 4603.51C977.313 5005.33 22.6149 4974.7 2.27186 4604C-13.376 4318.86 650.439 4447.67 970.772 4511.5C1043.96 4526.08 1108.83 4559.47 1160.17 4603.51ZM1160.17 4603.51C1324.21 4744.22 1350.26 4993.78 1068.77 5087C841.772 5162.18 205.9 5141.2 175.5 5522C145.1 5902.8 1442.36 6169.41 1068.77 6546.5C897.24 6719.64 242.544 6193 475.272 6739.5C708 7286 921.772 6923.5 921.772 7191C921.772 7706.96 -125.728 8062.15 475.272 8026.5C959.272 7997.79 1084.57 8248 1165.27 8349.5C1310.77 8532.5 1354.57 8649.5 921.772 8697.5C380.772 8757.5 567.272 8551.5 567.272 8551.5C567.272 8551.5 127.272 8719 127.272 8909C127.272 9099 567.272 8909.5 567.272 9115" stroke="#4A1C65" stroke-opacity="0.7" stroke-width="4" stroke-linecap="round"/>
</svg>
