<svg width="59" height="148" viewBox="0 0 59 148" fill="none" xmlns="http://www.w3.org/2000/svg">
<path d="M1 1.84988C23.8605 15.5992 46.0431 32.2485 54.891 58.4193C57.3435 65.6737 59.2202 78.5426 53.1076 84.8467C47.7955 90.3252 37.0721 91.3974 29.9804 91.0638C23.0486 90.7378 15.328 88.3528 10.6866 83.036C8.58066 80.6237 7.48928 77.3097 11.073 76.1289C20.5767 72.9974 30.3237 84.4322 28.8103 93.3275C26.5562 106.576 15.6109 118.227 15.8195 131.758C15.8434 133.309 14.8604 141.632 17.9428 141.584C21.123 141.535 23.1046 136.325 25.2288 134.571C28.4761 131.89 19.6166 140.933 17.5512 144.603C15.9218 147.498 16.4983 147.909 15.023 144.039C13.5098 140.07 10.2533 134.248 5.97822 132.896" stroke="#15A078" stroke-width="2" stroke-linecap="round"/>
</svg>
