<svg width="123" height="132" viewBox="0 0 123 132" fill="none" xmlns="http://www.w3.org/2000/svg">
<path d="M121.734 33.2741C111.183 8.4826 93.6974 -8.40453 66.4978 7.6696C45.545 20.0521 38.9044 54.5208 60.1234 70.6477C65.2074 74.5116 73.5996 71.581 77.8116 67.6171C84.4747 61.3464 84.3988 53.3224 80.0216 45.5211C72.0702 31.3495 51.4638 20.4129 36.2103 29.3955C12.3398 43.4527 6.22819 73.022 10.0506 98.9619C10.812 104.129 22.853 141.349 23.0223 119.403C23.053 115.42 22.6792 103.495 22.3996 107.468C21.9359 114.054 21.9483 117.775 23.6203 124.339C23.9522 125.642 26.6332 132.212 23.1582 130.577C16.043 127.231 8.70683 124.452 1.65646 120.937" stroke="#15A078" stroke-width="2" stroke-linecap="round"/>
</svg>
