<svg width="101" height="101" viewBox="0 0 101 101" fill="none" xmlns="http://www.w3.org/2000/svg">
<path opacity="0.5" d="M50.5024 67.3332C26.2629 67.3332 21.9688 43.1752 21.2081 24.0146C20.9965 18.6848 20.8907 16.0198 22.8926 13.5542C24.8946 11.0885 27.2907 10.6842 32.0829 9.8757C36.8133 9.07759 42.9969 8.4165 50.5024 8.4165C58.0084 8.4165 64.1921 9.07759 68.9223 9.8757C73.7143 10.6842 76.1106 11.0885 78.1125 13.5542C80.1144 16.0198 80.0087 18.6848 79.7971 24.0146C79.0366 43.1752 74.7424 67.3332 50.5024 67.3332Z" fill="#1C274C"/>
<path d="M74.2368 52.2758L86.0896 45.6905C89.2559 43.9315 90.8391 43.0519 91.7111 41.5701C92.583 40.0883 92.583 38.2772 92.583 34.6549V34.3497C92.5835 29.9578 92.5835 27.7619 91.3917 26.1087C90.2003 24.4555 88.1172 23.7611 83.9505 22.3722L79.9585 21.0415L79.8873 21.3977C79.8676 22.1942 79.8331 23.0618 79.7952 24.0145C79.4236 33.3755 78.2086 43.9294 74.2368 52.2758Z" fill="#1C274C"/>
<path d="M21.2059 24.0146C21.5776 33.376 22.7927 43.9302 26.7652 52.277L14.9102 45.6906C11.7437 43.9315 10.1605 43.0519 9.2886 41.5701C8.41668 40.0883 8.41663 38.2772 8.41651 34.6549V34.3497C8.41638 29.9579 8.41634 27.7619 9.60789 26.1087C10.7994 24.4555 12.8826 23.7611 17.0491 22.3722L21.0413 21.0415L21.1142 21.4064C21.1339 22.2005 21.1682 23.0653 21.2059 24.0146Z" fill="#1C274C"/>
<path fill-rule="evenodd" clip-rule="evenodd" d="M22.0938 92.5835C22.0938 90.8404 23.5069 89.4272 25.25 89.4272H75.75C77.4931 89.4272 78.9062 90.8404 78.9062 92.5835C78.9062 94.3266 77.4931 95.7397 75.75 95.7397H25.25C23.5069 95.7397 22.0938 94.3266 22.0938 92.5835Z" fill="#1C274C"/>
<path opacity="0.5" d="M65.0533 89.427H35.9517L37.2008 82.0633C37.5942 80.0959 39.3213 78.6802 41.3274 78.6802H59.6775C61.6832 78.6802 63.4107 80.0959 63.8038 82.0633L65.0533 89.427Z" fill="#1C274C"/>
<path d="M50.5008 67.3342C49.4084 67.3342 48.3567 67.285 47.3438 67.1895V78.6803H53.6562V67.1895C52.6437 67.285 51.5925 67.3342 50.5008 67.3342Z" fill="#1C274C"/>
<path d="M46.9056 25.3446C48.5048 22.4759 49.3044 21.0415 50.5 21.0415C51.6956 21.0415 52.4952 22.4759 54.0943 25.3446L54.508 26.0867C54.9621 26.9019 55.1893 27.3096 55.5437 27.5785C55.898 27.8474 56.3391 27.9473 57.2215 28.1469L58.0249 28.3287C61.1302 29.0313 62.6831 29.3826 63.0526 30.5705C63.4221 31.7584 62.3633 32.9962 60.2465 35.4718L59.6986 36.1123C59.0972 36.8157 58.7963 37.1675 58.6608 37.6026C58.5257 38.0378 58.5711 38.5071 58.6621 39.4457L58.745 40.3002C59.0648 43.6032 59.2251 45.2546 58.2581 45.9889C57.2906 46.7229 55.837 46.0537 52.9295 44.7151L52.1774 44.3687C51.3509 43.9883 50.9381 43.7981 50.5 43.7981C50.0619 43.7981 49.6491 43.9883 48.8225 44.3687L48.0705 44.7151C45.163 46.0537 43.7094 46.7229 42.7419 45.9889C41.775 45.2546 41.935 43.6032 42.255 40.3002L42.3379 39.4457C42.4288 38.5071 42.4743 38.0378 42.3392 37.6026C42.2037 37.1675 41.9029 36.8157 41.3013 36.1123L40.7536 35.4718C38.6366 32.9962 37.5781 31.7584 37.9475 30.5705C38.3169 29.3826 39.8696 29.0313 42.9751 28.3287L43.7784 28.1469C44.6609 27.9473 45.102 27.8474 45.4563 27.5785C45.8106 27.3096 46.0379 26.9019 46.492 26.0867L46.9056 25.3446Z" fill="#1C274C"/>
</svg>
