<svg width="120" height="100" viewBox="0 0 120 100" fill="none" xmlns="http://www.w3.org/2000/svg">
<path fill-rule="evenodd" clip-rule="evenodd" d="M91.9199 98.8959C93.5299 100.036 95.6048 100.321 97.4548 99.6209C99.3047 98.9159 100.665 97.3359 101.075 95.4209C105.42 75.0008 115.959 23.3158 119.914 4.74075C120.214 3.34074 119.714 1.88574 118.614 0.950743C117.514 0.0157415 115.989 -0.254259 114.629 0.250741C93.6649 8.01075 29.1013 32.2358 2.71193 42.0008C1.03697 42.6208 -0.0530095 44.2308 0.00198922 45.9958C0.0619879 47.7658 1.25196 49.3008 2.96692 49.8158C14.8017 53.3558 30.3363 58.2808 30.3363 58.2808C30.3363 58.2808 37.5961 80.2058 41.3811 91.3559C41.856 92.7559 42.951 93.8559 44.396 94.2359C45.8359 94.6109 47.3759 94.2159 48.4509 93.2008C54.5308 87.4608 63.9305 78.5858 63.9305 78.5858C63.9305 78.5858 81.7901 91.6808 91.9199 98.8959ZM36.8712 55.5108L45.266 83.2008L47.1309 65.6658C47.1309 65.6658 79.5652 36.4108 98.0548 19.7358C98.5948 19.2458 98.6697 18.4258 98.2198 17.8508C97.7748 17.2758 96.9548 17.1408 96.3398 17.5308C74.9103 31.2158 36.8712 55.5108 36.8712 55.5108Z" fill="#2F2C4B"/>
</svg>
