<svg width="115" height="125" viewBox="0 0 115 125" fill="none" xmlns="http://www.w3.org/2000/svg">
<path d="M56.5515 11.6784L53.5689 15.137L48.6265 12.7433C42.1838 9.62286 39.2397 9.17756 38.7378 11.1137C38.4869 12.0817 40.1376 14.2977 43.5079 17.2375L48.5662 21.8666L44.6336 29.9862C38.2646 43.1364 41.9686 44.7124 51.7341 33.0983L56.1411 27.8235L61.522 30.2117C69.4596 33.6203 72.9787 34.4531 73.6627 33.041C74.4748 31.3641 72.8696 29.2791 67.2019 25.0086C59.8517 19.4875 59.8517 19.4875 60.8554 15.6153C62.7403 8.57411 60.7876 6.75668 56.5515 11.6784Z" fill="white"/>
<path d="M78.1334 55.8995C76.7545 57.8466 74.5234 61.7782 72.9363 64.6051L70.2378 69.7268L62.9196 70.2138C58.8875 70.4401 55.3449 71.2304 55.0457 71.8482C54.4045 73.172 54.581 73.2575 62.775 76.1365L68.3269 78.1717L68.2967 82.7334C68.2927 85.8913 68.8416 87.6825 69.9889 88.2382C71.4893 88.9649 72.096 88.3871 74.7117 83.6612L77.6267 78.3176L83.3274 78.2457C89.0281 78.1737 94.4957 77.0083 95.0942 75.7727C95.8636 74.1841 92.0231 72.2151 86.3968 71.2334C83.0996 70.6171 80.1499 69.7333 80.0562 69.2521C79.8741 68.7281 80.3111 65.1261 80.9191 61.1712C82.4343 52.6435 81.4469 50.8578 78.1334 55.8995Z" fill="white"/>
<path d="M41.6339 55.5143C40.9817 55.9611 37.4778 59.821 33.8913 64.0766L27.4103 71.8336L23.3588 70.5251C17.6332 68.6237 15.8902 69.5229 18.7849 72.995C20.1198 74.5132 21.6767 76.2479 22.3855 76.8092C23.3619 77.7179 22.9055 79.785 20.3546 86.1766C18.4421 91.0252 17.3129 95.3815 17.637 96.737C18.1459 98.8358 18.1459 98.8358 20.1509 97.8456C21.2844 97.305 23.6203 94.7317 25.2102 92.124C31.9172 81.4256 31.5242 81.5622 39.1431 84.0537C50.5488 87.7255 52.3979 84.8076 42.6704 78.5708C39.7069 76.5907 36.9626 74.6078 36.6496 74.1293C36.291 73.5198 37.8188 69.4655 40.0415 64.8762C43.8459 57.0214 44.3767 53.9008 41.6339 55.5143Z" fill="white"/>
</svg>
