<svg width="122" height="118" viewBox="0 0 122 118" fill="none" xmlns="http://www.w3.org/2000/svg">
<path d="M36.757 36.612C36.9196 37.8042 37.3872 39.0099 38.5256 39.5857C39.7046 40.1818 41.2631 39.9244 41.9542 38.7187C42.5166 37.7297 42.4963 36.3749 42.6047 35.264C42.7131 34.1667 42.7809 33.0626 42.8148 31.9584C42.8893 29.4792 42.7809 27 42.5031 24.5344C42.415 23.7825 42.0559 23.2474 41.3241 23.0035C40.8565 22.8477 40.4025 22.868 39.9892 23.0103C39.6233 22.8477 39.2167 22.8274 38.844 22.9426C38.1325 22.6174 37.1704 22.8613 36.7977 23.5861C35.8287 25.4895 35.7067 27.6029 35.9032 29.696C36.1201 32.0059 36.4521 34.3089 36.757 36.6052L36.757 36.612ZM40.0705 36.8626C40.0976 36.8965 40.1111 36.9033 40.0705 36.8626V36.8626ZM39.1964 37.1675C39.1625 37.2013 39.1964 37.3436 39.1964 37.1675V37.1675Z" fill="#525252"/>
<path d="M61.5031 32.2158C60.568 31.7417 59.5042 32.182 59.1925 33.1913C59.0773 33.5638 58.9824 33.9431 58.8876 34.3225C58.7249 34.3834 58.5623 34.4512 58.4065 34.546C57.4985 35.115 57.1461 36.1717 57.0174 37.181C56.7599 39.1454 56.8006 41.0759 57.1055 43.0335C57.119 43.1148 57.1461 43.1893 57.1732 43.2571C57.1732 43.9074 57.1732 44.5509 57.1868 45.2011C57.2139 46.2104 57.363 47.2875 57.9796 48.1206C58.6369 49.0215 59.6262 49.6786 60.7849 49.6176C63.2785 49.4754 64.0103 46.8607 64.1593 44.7947C64.3152 42.6949 64.5591 40.5679 64.5795 38.4613C64.5998 36.043 63.8138 33.3877 61.5031 32.2158Z" fill="#525252"/>
<path d="M83.0171 20.9036C83.0171 20.8088 83.0171 20.7072 83.0171 20.6124C83.0035 19.1357 82.8883 17.6184 81.777 16.521C80.9436 15.7014 79.6832 16.0672 79.2225 17.0358C78.6126 16.9613 78.0502 17.2661 77.6572 17.8148C77.0203 18.6886 76.8983 19.8402 76.9186 20.8969C76.9389 22.0145 77.0135 23.1322 77.0948 24.2431C77.2642 26.5394 77.5352 28.8357 77.8944 31.1117C78.0299 31.9991 79.0599 32.3919 79.8256 32.2429C81.3027 31.9584 82.353 30.6917 82.7867 29.3167C82.8612 29.0728 82.9154 28.8289 82.9561 28.5783C83.4169 27.2439 83.4304 25.6995 83.3897 24.2973C83.3559 23.1661 83.2271 22.0349 83.0238 20.9172L83.0171 20.9036Z" fill="#525252"/>
<path d="M99.0018 45.2011C98.995 44.4154 98.9679 43.6364 98.9272 42.8506C98.8798 41.9091 98.8392 40.9743 98.0938 40.2969C97.3078 39.5857 96.1287 39.5925 95.2614 40.1411C95.1936 40.1885 95.1327 40.236 95.0717 40.2834C94.7871 40.0666 94.4415 39.9244 94.0959 39.9244C93.1879 39.9244 92.5713 40.6492 92.5103 41.5094C92.2867 44.7134 92.2935 47.931 92.5374 51.1282C92.6594 52.6997 92.612 54.6506 93.7842 55.8631C95.1733 57.3059 97.362 56.6827 98.1209 54.9351C98.4733 54.129 98.5478 53.2958 98.6427 52.4288C98.7375 51.582 98.812 50.7421 98.8663 49.8954C98.9747 48.3306 99.0153 46.7659 98.995 45.1944L99.0018 45.2011Z" fill="#525252"/>
<path d="M114.119 22.7529C113.868 21.642 112.479 21.2897 111.646 21.8858C110.928 21.8587 110.135 22.2787 109.999 23.0509C109.674 24.9476 109.423 26.8645 109.261 28.7815C109.186 29.7028 109.125 30.624 109.091 31.552C109.057 32.4868 108.935 33.5232 109.173 34.4376C109.505 35.7043 110.799 36.4968 112.073 36.1852C113.211 35.9075 113.929 34.9931 114.248 33.9025C114.492 33.0558 114.566 32.1142 114.654 31.2404C114.743 30.3734 114.79 29.5063 114.783 28.6393C114.783 26.6681 114.546 24.6834 114.112 22.7597L114.119 22.7529Z" fill="#525252"/>
<path d="M14.5112 13.2696C14.2605 12.1587 12.8714 11.8065 12.038 12.4026C11.3197 12.3755 10.5269 12.7954 10.3914 13.5676C10.0662 15.4643 9.81543 17.3813 9.6528 19.2982C9.57827 20.2195 9.51728 21.1407 9.4834 22.0687C9.44952 23.0035 9.32757 24.0399 9.56473 24.9543C9.89676 26.221 11.191 27.0136 12.4649 26.702C13.6033 26.4242 14.3215 25.5098 14.64 24.4192C14.8839 23.5725 14.9585 22.6309 15.0465 21.7571C15.1346 20.8901 15.1821 20.023 15.1753 19.156C15.1753 17.1848 14.9381 15.2001 14.5045 13.2764L14.5112 13.2696Z" fill="#525252"/>
<path d="M74.2895 57.7326C73.0631 57.4684 71.9653 58.112 71.4233 59.2093C71.2064 59.1009 70.9761 59.0399 70.7389 59.0467C69.8445 59.0874 69.2007 59.7444 69.1533 60.6318C69.0517 62.5894 69.0652 64.5538 69.221 66.5114C69.3024 67.5478 69.4176 68.5842 69.5666 69.6138C69.7225 70.745 69.8783 72.0253 70.9557 72.6755C71.9721 73.2852 73.1579 73.0346 73.9982 72.242C74.6758 71.5985 75.001 70.7179 75.3059 69.8577C75.8819 68.1981 76.1801 66.4301 76.2343 64.6757C76.2952 62.7181 76.0174 60.7266 75.4211 58.8571C75.2517 58.3287 74.8587 57.8478 74.2895 57.7258L74.2895 57.7326Z" fill="#525252"/>
<path d="M44.3462 54.9012C42.8758 55.1112 42.3066 56.3779 42.0559 57.7123C41.7713 57.9155 41.5477 58.2136 41.4596 58.5726C40.6261 62.1559 40.6736 65.9085 41.6087 69.4716C41.8526 70.3996 43.0587 71.0227 43.9193 70.447C47.4361 68.0762 47.5851 63.5851 47.3954 59.7512C47.3073 57.9629 46.8601 54.5489 44.3394 54.9012L44.3462 54.9012Z" fill="#525252"/>
<path d="M27.7855 72.0862C27.1282 71.6121 25.956 71.9643 25.624 72.6823C25.3665 73.2378 25.1496 73.8068 24.9599 74.3826C24.2891 74.579 23.8486 75.1547 23.7944 75.8931C23.6589 77.7762 23.5505 79.6661 23.476 81.5492C23.4082 83.2765 23.0762 85.7963 24.9802 86.7176C26.1999 87.3137 27.5416 86.6905 28.1718 85.5593C28.6054 84.7871 28.8358 83.8455 29.0391 82.9852C29.4457 81.2308 29.6286 79.4087 29.7777 77.6136C29.8522 76.6789 29.8454 75.7305 29.6354 74.8161C29.3711 73.6645 28.7342 72.7704 27.7855 72.093L27.7855 72.0862Z" fill="#525252"/>
<path d="M115.874 84.279C115.217 83.8048 114.045 84.1571 113.713 84.8751C113.455 85.4306 113.238 85.9996 113.049 86.5753C112.378 86.7718 111.937 87.3475 111.883 88.0859C111.748 89.969 111.639 91.8589 111.565 93.742C111.497 95.4693 111.165 97.9891 113.069 98.9104C114.289 99.5064 115.63 98.8833 116.26 97.752C116.694 96.9798 116.924 96.0383 117.128 95.178C117.534 93.4236 117.717 91.6015 117.866 89.8064C117.941 88.8716 117.934 87.9233 117.724 87.0088C117.46 85.8573 116.823 84.9632 115.874 84.2858L115.874 84.279Z" fill="#525252"/>
<path d="M57.5527 79.8151C55.6079 79.9573 54.8762 81.434 54.6051 83.0733C54.0156 83.3036 53.6158 83.8523 53.5819 84.5364C53.399 88.3026 53.338 92.3872 55.4792 95.6725C56.0823 96.6005 57.6882 96.8443 58.2303 95.6725C60.358 91.1002 60.7306 85.7896 59.0773 81.0005C58.8604 80.3705 58.2777 79.7677 57.5459 79.8219L57.5527 79.8151Z" fill="#525252"/>
<path d="M89.827 79.6999C89.1629 79.0361 88.2685 79.1716 87.5909 79.6999C86.8659 80.2554 86.4119 81.0073 86.1137 81.8337C85.409 82.064 84.8737 82.7617 84.8059 83.5745C84.7585 84.218 84.8466 84.8886 84.8873 85.5321C84.9279 86.2434 84.9686 86.9479 85.0092 87.6591C85.0838 89.0071 85.1109 90.3822 85.3684 91.7098C85.6597 93.1865 86.3644 94.3787 87.5638 95.2864C88.404 95.9231 89.6373 95.1848 89.8744 94.3109C90.5317 91.9333 90.9315 89.4813 91.0873 87.0224C91.1619 85.8437 91.1754 84.6651 91.1212 83.4865C91.0602 82.1046 90.8434 80.7228 89.827 79.7067L89.827 79.6999Z" fill="#525252"/>
<path d="M104.639 63.6393C103.833 64.6283 103.332 65.746 103.054 66.9314C102.749 67.1278 102.519 67.4191 102.444 67.8052C101.814 71.1244 102.248 74.4841 103.684 77.5391C104.179 78.5823 105.954 78.6094 106.435 77.5391C108.312 73.4139 108.678 68.6858 107.289 64.3574C106.957 63.321 105.453 62.6504 104.639 63.6393Z" fill="#525252"/>
<path d="M56.5092 21.5065C57.2478 21.8316 58.271 21.7436 58.6707 20.9104C61.1914 15.5998 62.7635 9.01565 59.267 3.73211C58.9147 3.19698 58.3455 2.86508 57.6882 2.95991C57.0038 3.06152 56.6108 3.49504 56.3601 4.11822C56.0281 4.94462 55.7977 5.78457 55.6419 6.63806C55.5267 6.62452 55.4182 6.62452 55.3098 6.63806C54.5441 6.74644 53.9207 7.38996 53.9275 8.19604C53.9478 10.5736 53.9953 12.9444 54.0834 15.322C54.1579 17.4964 54.1511 20.4701 56.5092 21.5133L56.5092 21.5065Z" fill="#525252"/>
<path d="M94.8548 11.1494C94.9023 11.5287 94.9361 11.9013 94.9903 12.2806C95.1191 13.2086 95.3359 14.1366 96.0542 14.8005C96.6776 15.3762 97.5043 15.5727 98.2767 15.1662C98.602 14.9969 98.873 14.7666 99.1102 14.5092C99.1712 14.4753 99.2389 14.4482 99.2999 14.4076C100.255 13.7709 100.391 12.7887 100.445 11.732C100.587 8.73118 100.432 5.59491 99.7742 2.6551C99.5709 1.74741 99.1102 0.880387 98.2971 0.385902C97.5178 -0.0882618 96.5014 -0.142456 95.7018 0.31816C94.7329 0.880383 94.4821 1.95063 94.3805 2.98025C94.3127 3.70504 94.2721 4.42983 94.2585 5.15462C94.2314 6.87516 94.3602 8.61601 94.6515 10.3162C94.699 10.594 94.7667 10.8717 94.8616 11.1494L94.8548 11.1494Z" fill="#525252"/>
<path d="M19.5933 37.7703C19.1528 37.8245 18.7598 38.0751 18.5023 38.4341C18.1568 38.5425 17.8383 38.739 17.5808 39.0167C17.0455 39.5857 16.8287 40.3985 16.6186 41.1301C16.2459 42.3968 16.0426 43.7109 15.9545 45.025C15.7716 47.9378 16.3543 50.8301 17.5401 53.4855C17.8789 54.2441 19.0241 54.5015 19.7017 54.0816C19.8847 53.9664 20.0337 53.8241 20.1557 53.6751C20.4335 53.5397 20.6707 53.3364 20.813 53.0655C23.1575 48.5474 23.2523 43.1826 21.1721 38.5493C20.9146 37.9803 20.1692 37.7026 19.5933 37.7771L19.5933 37.7703Z" fill="#525252"/>
<path d="M33.5113 2.79737C33.4435 2.62125 33.3757 2.43835 33.3012 2.26224C33.2402 1.84904 33.1521 1.44938 32.9353 1.09037C32.1357 -0.244065 30.3401 -0.176322 29.4117 0.948124C29.3846 0.981992 29.3711 1.01586 29.344 1.04973C29.1949 1.19875 29.0594 1.36132 28.9442 1.53744C28.1717 2.7093 27.6567 4.15212 27.3789 5.52042C27.0333 7.20031 27.0198 8.88698 27.3044 10.5804C27.4399 11.4 28.4699 11.9487 29.2356 11.7116C29.466 11.6371 29.6692 11.5288 29.8319 11.3933C30.7737 11.6913 31.8376 11.373 32.3796 10.3772C32.5694 10.025 32.7049 9.62531 32.8201 9.21889C33.9652 7.31546 34.2837 4.88368 33.5113 2.80413L33.5113 2.79737Z" fill="#525252"/>
<path d="M6.40707 62.4065C6.33931 62.2304 6.27155 62.0475 6.19701 61.8714C6.13603 61.4582 6.04793 61.0585 5.8311 60.6995C5.03153 59.3651 3.23587 59.4328 2.30755 60.5573C2.28044 60.5912 2.26691 60.625 2.2398 60.6589C2.09073 60.8079 1.95519 60.9705 1.84 61.1466C1.06753 62.3185 0.552551 63.7613 0.274733 65.1296C-0.0708456 66.8095 -0.0843877 68.4961 0.200206 70.1896C0.335727 71.0092 1.36569 71.5579 2.13138 71.3208C2.36177 71.2463 2.56505 71.1379 2.72768 71.0024C3.66955 71.3005 4.73338 70.9821 5.27546 69.9864C5.46519 69.6341 5.60071 69.2345 5.7159 68.828C6.86105 66.9246 7.17954 64.4928 6.40707 62.4133L6.40707 62.4065Z" fill="#525252"/>
<path d="M10.8047 89.6845C9.00231 89.61 7.98591 91.6895 7.46415 93.1255C7.40317 93.2881 7.36929 93.4507 7.32186 93.6133C6.71879 93.7081 6.21057 94.1619 6.01407 94.7783C5.18061 97.4337 5.23483 100.441 6.23769 103.049C6.4884 103.699 6.75267 104.377 7.12535 104.959C7.7894 106.002 8.96844 106.382 10.0729 105.765C11.6246 104.905 12.4107 103.212 12.8647 101.579C13.6033 98.9307 14.2199 95.9976 13.6642 93.261C13.3661 91.7843 12.5665 89.759 10.798 89.6845L10.8047 89.6845Z" fill="#525252"/>
<path d="M35.7813 99.5606C35.4628 100.062 35.2595 100.644 35.1104 101.261C34.4057 101.43 33.9856 102.067 33.9043 102.798C33.369 107.445 32.9963 112.234 35.0562 116.583C35.5644 117.653 37.2923 117.626 37.8073 116.583C39.1354 113.907 39.7927 111.042 40.1247 108.082C40.2873 106.66 40.3619 105.23 40.4025 103.801C40.4228 103.157 40.4364 102.514 40.4432 101.87C40.4567 101.037 40.538 100.13 40.1044 99.3777C39.1151 97.6504 36.7367 98.0501 35.7745 99.5538L35.7813 99.5606Z" fill="#525252"/>
<path d="M69.2685 97.2304C68.5976 97.1424 68.0691 97.4675 67.6897 98.0026C66.7207 99.3709 65.8533 100.936 65.6094 102.616C65.5078 103.279 65.4874 103.97 65.5484 104.641C65.5349 104.824 65.5146 105.013 65.5078 105.196C65.4468 106.707 65.4129 109.051 67.2153 109.538C68.1166 109.782 69.0991 109.505 69.7225 108.807C70.2849 108.184 70.5153 107.378 70.705 106.585C71.0031 105.325 71.1658 104.011 71.1658 102.717C71.1658 101.261 70.976 99.7841 70.5966 98.3752C70.434 97.7588 69.8919 97.2982 69.2685 97.2169L69.2685 97.2304Z" fill="#525252"/>
<path d="M120.089 46.4272C119.418 46.3391 118.889 46.6643 118.51 47.1994C117.541 48.5677 116.674 50.1324 116.43 51.8123C116.328 52.4762 116.308 53.1671 116.369 53.8377C116.355 54.0206 116.335 54.2102 116.328 54.3931C116.267 55.9037 116.233 58.2474 118.036 58.7351C118.937 58.979 119.919 58.7013 120.543 58.0036C121.105 57.3804 121.336 56.5743 121.525 55.7818C121.823 54.5218 121.986 53.2077 121.986 51.9139C121.986 50.4576 121.796 48.9809 121.417 47.5719C121.254 46.9555 120.712 46.4949 120.089 46.4136L120.089 46.4272Z" fill="#525252"/>
<path d="M104.179 104.14C103.901 103.374 103.372 102.677 102.532 102.473C101.407 102.202 100.506 102.961 100.133 103.964C99.9301 104.499 99.7743 105.061 99.6387 105.616C99.4219 106.497 99.2932 107.398 99.2051 108.299C99.1712 108.373 99.1373 108.455 99.117 108.543C98.4665 111.042 98.8663 113.799 100.255 115.987C100.601 116.536 101.184 116.847 101.834 116.759C102.505 116.671 102.932 116.217 103.162 115.601C103.955 113.488 104.402 111.252 104.524 108.996C104.585 107.892 104.551 106.781 104.436 105.684C104.382 105.169 104.362 104.621 104.179 104.133L104.179 104.14Z" fill="#525252"/>
</svg>
