<svg width="54" height="64" viewBox="0 0 54 64" fill="none" xmlns="http://www.w3.org/2000/svg">
<path d="M53.6249 15.5153V15.2013H53.5988C53.4418 11.3299 50.826 7.4846 45.712 4.54177C35.2224 -1.51392 18.2194 -1.51392 7.79528 4.54177C2.57666 7.57615 -0.0130299 11.5522 4.92932e-05 15.5283V23.729V23.8729V31.9297V32.0736V40.1304V40.2743V48.4749C0.0262078 52.451 2.66822 56.4271 7.91299 59.4484C13.1708 62.4828 20.0374 64 26.891 64C33.7576 64 40.598 62.4828 45.8297 59.4484C51.0483 56.414 53.638 52.438 53.6249 48.4749V40.2743V39.8165V32.0736V31.5896V23.8467V23.389V15.5153ZM13.2493 10.5975L14.7011 9.76038C15.0673 9.55112 15.6428 9.55112 16.0221 9.76038L17.814 10.7936C18.2064 10.5582 18.6118 10.3359 19.0042 10.1004L17.2123 9.06718C16.8461 8.85792 16.8461 8.51786 17.2123 8.30859L18.6641 7.47152C19.0303 7.26225 19.6189 7.26225 19.9851 7.47152L22.274 8.79252L22.5748 8.70097C25.1384 7.91621 27.8588 7.56307 30.7624 7.77234C33.0382 7.94237 35.0786 8.47862 36.9489 9.26337C37.6813 9.5642 38.3615 9.90426 38.9762 10.2574C40.598 11.1991 41.8405 12.2978 42.8084 13.5403L43.0046 13.8803C43.2269 14.3381 42.9654 14.652 42.1937 14.8351C41.3828 15.0444 40.5588 15.2275 39.7348 15.4106C39.1593 15.5283 38.7538 15.5022 38.4007 15.2929C38.3091 15.2406 38.2307 15.1752 38.1391 15.1098C37.5898 14.5997 37.0928 14.0504 36.5042 13.5534C35.981 13.0956 35.4056 12.664 34.7516 12.2847C33.8884 11.7877 32.8943 11.3691 31.7041 11.0814C29.9254 10.6367 28.1858 10.7413 26.4332 11.1468L26.3678 11.1599L30.8017 13.7234C31.1679 13.9327 31.1679 14.2727 30.8017 14.482L29.3499 15.3191C28.9837 15.5283 28.3951 15.5283 28.0289 15.3191L22.941 12.3893C22.5617 12.6117 22.1563 12.8471 21.7508 13.0825L26.8387 16.0123C27.2049 16.2215 27.2049 16.5616 26.8387 16.7709L25.3869 17.6079C25.0206 17.8172 24.4452 17.8172 24.0659 17.6079L19.4227 14.9267C18.3895 16.1823 18.0625 17.4248 19.2265 18.7197C19.7235 19.269 20.3644 19.7529 21.1099 20.1845C21.7639 20.5638 22.4833 20.8908 23.2549 21.1916C24.1182 21.5055 25.0337 21.7933 25.9231 22.1203C26.067 22.1726 26.1847 22.2249 26.2893 22.2903C26.6425 22.4996 26.6948 22.735 26.4855 23.062C26.1847 23.559 25.8446 24.0429 25.4784 24.5138C25.1776 24.9454 24.6152 25.1023 23.8043 24.9454C22.9934 24.7623 22.1955 24.5399 21.4108 24.2914C19.9721 23.8206 18.6772 23.2712 17.5524 22.6173C16.3753 21.9372 15.3812 21.1524 14.5834 20.263C12.7131 18.1442 12.7523 15.9861 14.2826 13.8149C14.5834 13.3833 15.0019 13.004 15.3682 12.5986L13.197 11.343C12.8831 11.1468 12.8831 10.8067 13.2493 10.5975ZM7.91299 26.5018C18.4156 32.5706 35.3925 32.5706 45.8297 26.5018C47.4515 25.5601 48.7987 24.5138 49.9104 23.4151V23.8729C49.9235 26.5934 47.7524 29.4316 43.9594 31.6289C39.4601 34.2447 33.4044 35.6834 26.891 35.6834C20.3775 35.6834 14.2826 34.2447 9.75716 31.6289C5.92495 29.4185 3.71455 26.5672 3.6884 23.8598V23.3236C4.85245 24.4484 6.23885 25.534 7.91299 26.5018ZM43.9725 48.0172C39.4732 50.633 33.4175 52.0717 26.904 52.0717C20.3906 52.0717 14.2957 50.633 9.77024 48.0172C5.93802 45.8068 3.72763 42.9555 3.70147 40.2481V39.8557C4.85245 40.9936 6.22577 42.0661 7.91299 43.034C13.1708 46.0684 20.0374 47.5856 26.891 47.5856C33.7576 47.5856 40.598 46.0684 45.8297 43.034C47.4515 42.0923 48.7987 41.0459 49.9104 39.9473V40.2743C49.9366 42.9947 47.7654 45.8199 43.9725 48.0172ZM43.9725 39.8296C39.4732 42.4454 33.4175 43.8841 26.904 43.8841C20.3906 43.8841 14.2957 42.4454 9.77024 39.8296C5.93802 37.6192 3.72763 34.7679 3.70147 32.0605V31.6681C4.85245 32.806 6.22577 33.8785 7.91299 34.8464C13.1708 37.8808 20.0374 39.3979 26.891 39.3979C33.7576 39.3979 40.598 37.8808 45.8297 34.8464C47.4515 33.9047 48.7987 32.8583 49.9104 31.7597V32.0867C49.9366 34.7941 47.7654 37.6192 43.9725 39.8296ZM43.9725 56.2179C39.4732 58.8337 33.4175 60.2724 26.904 60.2724C20.3906 60.2724 14.2957 58.8337 9.77024 56.2179C5.93802 54.0075 3.72763 51.1562 3.70147 48.4488V48.0564C4.85245 49.1943 6.22577 50.2668 7.91299 51.2347C13.1708 54.269 20.0374 55.7862 26.891 55.7862C33.7576 55.7862 40.598 54.269 45.8297 51.2347C47.4515 50.293 48.7987 49.2466 49.9104 48.148V48.4749C49.9366 51.1823 47.7654 54.0205 43.9725 56.2179Z" fill="#54BD95"/>
</svg>
